<?xml version="1.0" encoding="utf-8"?>
<!-- Generator: Adobe Illustrator 16.0.5, SVG Export Plug-In . SVG Version: 6.00 Build 0)  -->
<!DOCTYPE svg PUBLIC "-//W3C//DTD SVG 1.1//EN" "http://www.w3.org/Graphics/SVG/1.1/DTD/svg11.dtd">
<svg version="1.1" id="Layer_1" xmlns="http://www.w3.org/2000/svg" xmlns:xlink="http://www.w3.org/1999/xlink" x="0px" y="0px"
	 width="16px" height="16px" viewBox="0 0 16 16" enable-background="new 0 0 16 16" xml:space="preserve">
<path fill="#00A0C6" d="M14,2.5C14,3.328,11.314,4,8,4C4.686,4,2,3.328,2,2.5S4.686,1,8,1C11.314,1,14,1.672,14,2.5z"/>
<path fill="#00A0C6" d="M8,5C4.7,5,2,4.3,2,3.5v3C2,7.3,4.7,8,8,8s6-0.7,6-1.5v-3C14,4.3,11.3,5,8,5z"/>
<path fill="#00A0C6" d="M8,9C4.7,9,2,8.3,2,7.5v3C2,11.3,4.7,12,8,12s6-0.7,6-1.5v-3C14,8.3,11.3,9,8,9z"/>
<path fill="#00A0C6" d="M8,13c-3.3,0-6-0.7-6-1.5v3C2,15.3,4.7,16,8,16s6-0.7,6-1.5v-3C14,12.3,11.3,13,8,13z"/>
</svg>
